<svg width="25" height="25" fill="none" xmlns="http://www.w3.org/2000/svg"><path d="M17.027 3.646a.532.532 0 0 0-.146-.368.491.491 0 0 0-.355-.153h-2.504a4.668 4.668 0 0 0-3.433 1.27 5.05 5.05 0 0 0-1.575 3.418v2.812H6.51a.491.491 0 0 0-.354.153.532.532 0 0 0-.146.368v2.708c0 .138.052.27.146.369a.491.491 0 0 0 .354.152h2.504v6.98c0 .137.053.27.147.367a.491.491 0 0 0 .354.153h3.005c.133 0 .26-.055.354-.152a.532.532 0 0 0 .147-.369v-6.979h2.624a.489.489 0 0 0 .309-.105.522.522 0 0 0 .182-.28l.72-2.709a.54.54 0 0 0-.084-.45.506.506 0 0 0-.396-.206h-3.355V7.813c.025-.258.141-.497.326-.67a.98.98 0 0 1 .675-.268h2.504c.133 0 .26-.055.355-.152a.532.532 0 0 0 .146-.369V3.646Z" fill="#fff"/></svg>