<svg width="25" height="25" fill="none" xmlns="http://www.w3.org/2000/svg"><path d="M15.174 8.75a5.644 5.644 0 0 0-2.238.455 5.84 5.84 0 0 0-1.9 1.313 6.092 6.092 0 0 0-1.272 1.969 6.284 6.284 0 0 0-.45 2.325v6.126c0 .248.096.487.265.662a.883.883 0 0 0 .637.275h2.104a.883.883 0 0 0 .637-.275.957.957 0 0 0 .264-.663v-6.125a2.1 2.1 0 0 1 .168-.824c.112-.259.274-.491.477-.68a1.93 1.93 0 0 1 .703-.42c.26-.088.534-.117.806-.086.486.064.934.311 1.257.695.323.384.5.878.495 1.389v6.052c0 .248.095.487.265.662a.884.884 0 0 0 .637.275h2.103c.24 0 .469-.099.638-.275a.957.957 0 0 0 .264-.663v-6.125a6.284 6.284 0 0 0-.45-2.325 6.094 6.094 0 0 0-1.271-1.97 5.829 5.829 0 0 0-1.9-1.312 5.644 5.644 0 0 0-2.239-.455Zm-8.564.938H3.907c-.498 0-.901.42-.901.937v10.313c0 .517.403.937.901.937h2.705c.498 0 .901-.42.901-.938V10.626c0-.518-.403-.938-.901-.938ZM5.258 7.813c1.245 0 2.254-1.05 2.254-2.344 0-1.295-1.009-2.344-2.254-2.344-1.244 0-2.253 1.05-2.253 2.344 0 1.294 1.009 2.343 2.253 2.343Z" fill="#fff"/></svg>