<svg width="123" height="20" fill="none" xmlns="http://www.w3.org/2000/svg"><path d="M116.585 19.239c-1.398 0-2.603-.267-3.614-.802a5.616 5.616 0 0 1-2.327-2.318c-.539-1.011-.809-2.221-.809-3.63 0-1.353.272-2.534.818-3.546a5.84 5.84 0 0 1 2.31-2.36c.994-.563 2.167-.844 3.519-.844.989 0 1.884.153 2.685.46a5.624 5.624 0 0 1 2.054 1.338 5.9 5.9 0 0 1 1.313 2.114c.306.83.46 1.764.46 2.803v1.091h-11.693v-2.59h7.363a1.795 1.795 0 0 0-.29-.99 1.836 1.836 0 0 0-.741-.672 2.18 2.18 0 0 0-1.048-.248c-.381 0-.73.083-1.049.248-.318.159-.573.38-.767.664a1.875 1.875 0 0 0-.298.997v2.796c0 .42.088.796.264 1.125.176.33.429.588.759.776.329.187.727.28 1.193.28.324 0 .619-.045.886-.135.273-.091.506-.222.699-.393.193-.176.335-.386.426-.63h4.296c-.148.909-.497 1.699-1.048 2.369-.552.665-1.282 1.182-2.191 1.551-.903.364-1.96.546-3.17.546ZM110.332 5.91 105.935 19h-5.455L96.082 5.91h4.943l2.114 8.658h.136l2.114-8.659h4.943ZM90.998 19V5.91h4.704V19h-4.704ZM93.35 4.545c-.636 0-1.182-.21-1.636-.63-.455-.42-.682-.926-.682-1.517 0-.591.227-1.097.681-1.517.455-.42 1-.631 1.637-.631.642 0 1.187.21 1.636.63.455.421.682.927.682 1.518 0 .59-.227 1.096-.682 1.517-.449.42-.994.63-1.636.63ZM90.038 5.91v3.408h-8.625V5.91h8.625Zm-6.955-3.137h4.705V14.79c0 .182.031.335.094.46.062.12.159.21.29.273.13.056.298.085.502.085.142 0 .307-.017.494-.051a6.89 6.89 0 0 0 .427-.085l.681 3.306c-.21.063-.51.14-.903.23a7.95 7.95 0 0 1-1.38.18c-1.08.056-1.986-.054-2.72-.333-.732-.284-1.283-.73-1.653-1.338-.37-.608-.548-1.37-.537-2.284V2.773Zm-8.14 16.466c-1.42 0-2.636-.282-3.648-.844a5.803 5.803 0 0 1-2.326-2.37c-.54-1.016-.81-2.195-.81-3.536 0-1.341.27-2.517.81-3.529a5.735 5.735 0 0 1 2.326-2.37c1.012-.567 2.228-.851 3.648-.851 1.284 0 2.395.233 3.332.699.944.46 1.674 1.113 2.19 1.96.518.84.78 1.83.785 2.966h-4.364c-.062-.688-.261-1.21-.596-1.569-.33-.363-.756-.545-1.279-.545a1.7 1.7 0 0 0-1.074.358c-.306.233-.545.588-.716 1.065-.17.472-.255 1.066-.255 1.781 0 .716.085 1.313.255 1.79.17.472.41.827.716 1.066.307.233.665.35 1.074.35.347 0 .654-.08.92-.24.268-.164.484-.403.648-.716.17-.318.273-.704.307-1.159h4.364c-.017 1.154-.281 2.16-.793 3.018-.511.852-1.236 1.51-2.173 1.977-.932.466-2.046.699-3.341.699ZM55.992 19h-5.114L56.64 1.545h6.478L68.878 19h-5.114L59.947 6.352h-.136L55.992 19Zm-.955-6.886h9.614v3.545h-9.614v-3.545ZM43.04 19V5.91h4.569v2.488h.136c.239-.92.617-1.594 1.134-2.02a2.813 2.813 0 0 1 1.832-.64c.205 0 .407.018.605.052.205.028.4.07.588.128v4.014c-.233-.08-.52-.14-.86-.18a7.914 7.914 0 0 0-.878-.059c-.46 0-.875.105-1.244.316a2.214 2.214 0 0 0-.861.869c-.21.37-.316.804-.316 1.304V19h-4.704Zm-7.368.239c-1.398 0-2.602-.267-3.614-.802a5.614 5.614 0 0 1-2.326-2.318c-.54-1.011-.81-2.221-.81-3.63 0-1.353.273-2.534.818-3.546a5.847 5.847 0 0 1 2.31-2.36c.994-.563 2.167-.844 3.52-.844.988 0 1.883.153 2.684.46a5.623 5.623 0 0 1 2.054 1.338 5.901 5.901 0 0 1 1.313 2.114c.307.83.46 1.764.46 2.803v1.091H30.388v-2.59h7.363a1.805 1.805 0 0 0-.29-.99 1.846 1.846 0 0 0-.74-.672 2.18 2.18 0 0 0-1.05-.248c-.38 0-.73.083-1.047.248a1.98 1.98 0 0 0-.768.664 1.874 1.874 0 0 0-.298.997v2.796c0 .42.088.796.264 1.125.177.33.43.588.759.776.33.187.727.28 1.193.28.324 0 .62-.045.886-.135a2 2 0 0 0 .7-.393c.193-.176.335-.386.425-.63h4.296c-.148.909-.497 1.699-1.048 2.369-.552.665-1.282 1.182-2.19 1.551-.904.364-1.96.546-3.171.546ZM28.58 5.91v3.408h-8.625V5.91h8.625Zm-6.954-3.137h4.704V14.79c0 .182.031.335.094.46.062.12.159.21.29.273.13.056.298.085.502.085.142 0 .307-.017.495-.051.193-.034.335-.063.426-.085l.682 3.306c-.21.063-.512.14-.904.23a7.95 7.95 0 0 1-1.38.18c-1.08.056-1.986-.054-2.72-.333-.732-.284-1.283-.73-1.652-1.338-.37-.608-.549-1.37-.538-2.284V2.773Zm-10.704 8.863V19H6.218V5.91h4.465v2.488h.137c.284-.83.784-1.48 1.5-1.952.721-.472 1.562-.707 2.522-.707.927 0 1.73.213 2.412.639.688.42 1.22 1 1.594 1.738.38.74.568 1.583.563 2.532V19h-4.705v-7.364c.006-.647-.159-1.156-.494-1.525-.33-.37-.79-.554-1.38-.554a1.97 1.97 0 0 0-1.015.255 1.64 1.64 0 0 0-.656.716c-.154.307-.233.676-.239 1.108ZM4.864 1.545V19H.125V1.545h4.739Z" fill="#0D0D0D"/></svg>