<svg width="25" height="25" fill="none" xmlns="http://www.w3.org/2000/svg"><path d="M8.093 20.833a10.704 10.704 0 0 0 4.34-.758 11.042 11.042 0 0 0 3.716-2.454 11.552 11.552 0 0 0 2.504-3.765c.584-1.416.89-2.94.898-4.481a8.551 8.551 0 0 0 1.483-2.958.477.477 0 0 0-.145-.475.432.432 0 0 0-.476-.057 1.818 1.818 0 0 1-1.143.165 1.861 1.861 0 0 1-1.02-.56 3.908 3.908 0 0 0-1.251-.95 3.774 3.774 0 0 0-3.035-.096c-.486.196-.93.491-1.304.868a4.337 4.337 0 0 0-1.09 1.874 4.47 4.47 0 0 0-.062 2.189c-3.355.208-5.659-1.448-7.501-3.719a.415.415 0 0 0-.454-.13.43.43 0 0 0-.204.144.458.458 0 0 0-.094.236 10.45 10.45 0 0 0 .726 5.986 9.957 9.957 0 0 0 3.882 4.483 6.657 6.657 0 0 1-4.477 2.375.445.445 0 0 0-.245.13.485.485 0 0 0-.086.538.46.46 0 0 0 .19.207 10.674 10.674 0 0 0 4.848 1.208Z" fill="#fff"/></svg>