<svg width="25" height="25" viewBox="0 0 25 25" fill="none" xmlns="http://www.w3.org/2000/svg">
<path d="M17.0271 3.64589C17.0271 3.50776 16.9744 3.37528 16.8805 3.2776C16.7865 3.17993 16.6592 3.12506 16.5263 3.12506H14.0223C12.7614 3.05973 11.5269 3.51609 10.5886 4.39441C9.65019 5.27273 9.08423 6.50161 9.01433 7.81255V10.6251H6.51032C6.3775 10.6251 6.25012 10.6799 6.1562 10.7776C6.06228 10.8753 6.00952 11.0078 6.00952 11.1459V13.8542C6.00952 13.9924 6.06228 14.1248 6.1562 14.2225C6.25012 14.3202 6.3775 14.3751 6.51032 14.3751H9.01433V21.3542C9.01433 21.4924 9.06709 21.6248 9.16101 21.7225C9.25493 21.8202 9.38231 21.8751 9.51513 21.8751H12.5199C12.6528 21.8751 12.7801 21.8202 12.8741 21.7225C12.968 21.6248 13.0207 21.4924 13.0207 21.3542V14.3751H15.6449C15.7563 14.3767 15.865 14.3397 15.9539 14.2699C16.0428 14.2001 16.1068 14.1015 16.1357 13.9896L16.8569 11.2813C16.8768 11.2043 16.8795 11.1237 16.8647 11.0455C16.8499 10.9673 16.8181 10.8936 16.7717 10.8302C16.7252 10.7668 16.6654 10.7154 16.5968 10.6798C16.5282 10.6442 16.4527 10.6255 16.3761 10.6251H13.0207V7.81255C13.0457 7.55472 13.1621 7.3158 13.3473 7.14244C13.5325 6.96909 13.7732 6.87376 14.0223 6.87505H16.5263C16.6592 6.87505 16.7865 6.82018 16.8805 6.72251C16.9744 6.62483 17.0271 6.49236 17.0271 6.35422V3.64589Z" fill="white"/>
</svg>
