<svg width="25" height="25" viewBox="0 0 25 25" fill="none" xmlns="http://www.w3.org/2000/svg">
<path d="M15.1743 8.75004C14.4066 8.7473 13.646 8.90201 12.9359 9.20532C12.2257 9.50864 11.5801 9.9546 11.0359 10.5177C10.4916 11.0808 10.0595 11.75 9.76422 12.4869C9.46893 13.2239 9.31625 14.0142 9.31494 14.8125V20.9375C9.31494 21.1862 9.40991 21.4246 9.57897 21.6004C9.74802 21.7763 9.97731 21.875 10.2164 21.875H12.3197C12.5588 21.875 12.7881 21.7763 12.9572 21.6004C13.1262 21.4246 13.2212 21.1862 13.2212 20.9375V14.8125C13.221 14.5286 13.2783 14.2478 13.3895 13.9884C13.5006 13.729 13.6631 13.497 13.8663 13.3073C14.0695 13.1176 14.3088 12.9746 14.5687 12.8875C14.8286 12.8005 15.1032 12.7714 15.3746 12.8021C15.8614 12.8659 16.3088 13.1132 16.6319 13.4972C16.9549 13.8812 17.1313 14.3752 17.1274 14.8855V20.9375C17.1274 21.1862 17.2224 21.4246 17.3915 21.6004C17.5605 21.7763 17.7898 21.875 18.0289 21.875H20.1322C20.3713 21.875 20.6006 21.7763 20.7697 21.6004C20.9387 21.4246 21.0337 21.1862 21.0337 20.9375V14.8125C21.0324 14.0142 20.8797 13.2239 20.5844 12.4869C20.2891 11.75 19.857 11.0808 19.3128 10.5177C18.7685 9.9546 18.1229 9.50864 17.4128 9.20532C16.7027 8.90201 15.942 8.7473 15.1743 8.75004Z" fill="white"/>
<path d="M6.61065 9.6875H3.90633C3.40847 9.6875 3.00488 10.1072 3.00488 10.625V20.9375C3.00488 21.4553 3.40847 21.875 3.90633 21.875H6.61065C7.10851 21.875 7.51209 21.4553 7.51209 20.9375V10.625C7.51209 10.1072 7.10851 9.6875 6.61065 9.6875Z" fill="white"/>
<path d="M5.25849 7.8125C6.50312 7.8125 7.51209 6.76317 7.51209 5.46875C7.51209 4.17433 6.50312 3.125 5.25849 3.125C4.01386 3.125 3.00488 4.17433 3.00488 5.46875C3.00488 6.76317 4.01386 7.8125 5.25849 7.8125Z" fill="white"/>
</svg>
