<svg width="123" height="20" viewBox="0 0 123 20" fill="none" xmlns="http://www.w3.org/2000/svg">
<path d="M116.585 19.2386C115.187 19.2386 113.982 18.9716 112.971 18.4375C111.965 17.8977 111.19 17.125 110.644 16.1193C110.105 15.108 109.835 13.8977 109.835 12.4886C109.835 11.1364 110.107 9.95454 110.653 8.94318C111.198 7.93181 111.968 7.14488 112.963 6.58238C113.957 6.01988 115.13 5.73863 116.482 5.73863C117.471 5.73863 118.366 5.89204 119.167 6.19886C119.968 6.50568 120.653 6.9517 121.221 7.53693C121.789 8.11647 122.227 8.82102 122.534 9.65056C122.84 10.4801 122.994 11.4148 122.994 12.4545V13.5455H111.301V10.9545H118.664C118.659 10.5795 118.562 10.25 118.374 9.96591C118.193 9.67613 117.946 9.4517 117.633 9.29261C117.326 9.12784 116.977 9.04545 116.585 9.04545C116.204 9.04545 115.855 9.12784 115.536 9.29261C115.218 9.4517 114.963 9.67329 114.769 9.95738C114.582 10.2415 114.482 10.5739 114.471 10.9545V13.75C114.471 14.1705 114.559 14.5455 114.735 14.875C114.911 15.2045 115.164 15.4631 115.494 15.6506C115.823 15.8381 116.221 15.9318 116.687 15.9318C117.011 15.9318 117.306 15.8864 117.573 15.7955C117.846 15.7045 118.079 15.5739 118.272 15.4034C118.465 15.2273 118.607 15.017 118.698 14.7727H122.994C122.846 15.6818 122.497 16.4716 121.946 17.142C121.394 17.8068 120.664 18.3239 119.755 18.6932C118.852 19.0568 117.795 19.2386 116.585 19.2386Z" fill="#0D0D0D"/>
<path d="M110.332 5.90909L105.935 19H100.48L96.0823 5.90909H101.025L103.139 14.5682H103.275L105.389 5.90909H110.332Z" fill="#0D0D0D"/>
<path d="M90.9976 19V5.90909H95.7021V19H90.9976ZM93.3498 4.54545C92.7135 4.54545 92.168 4.33523 91.7135 3.91477C91.2589 3.49432 91.0316 2.98864 91.0316 2.39773C91.0316 1.80682 91.2589 1.30114 91.7135 0.880681C92.168 0.460227 92.7135 0.25 93.3498 0.25C93.9919 0.25 94.5373 0.460227 94.9862 0.880681C95.4407 1.30114 95.668 1.80682 95.668 2.39773C95.668 2.98864 95.4407 3.49432 94.9862 3.91477C94.5373 4.33523 93.9919 4.54545 93.3498 4.54545Z" fill="#0D0D0D"/>
<path d="M90.0378 5.90908V9.31818H81.4128V5.90908H90.0378ZM83.0833 2.77272H87.7878V14.7898C87.7878 14.9716 87.8191 15.125 87.8816 15.25C87.9441 15.3693 88.0407 15.4602 88.1714 15.5227C88.302 15.5795 88.4697 15.6079 88.6742 15.6079C88.8162 15.6079 88.981 15.5909 89.1685 15.5568C89.3617 15.5227 89.5037 15.4943 89.5947 15.4716L90.2765 18.7784C90.0663 18.8409 89.7651 18.9176 89.3731 19.0085C88.9867 19.0994 88.5265 19.1591 87.9924 19.1875C86.9128 19.2443 86.0066 19.1335 85.2736 18.8551C84.5407 18.571 83.9895 18.125 83.6202 17.517C83.2509 16.9091 83.0719 16.1477 83.0833 15.2329V2.77272Z" fill="#0D0D0D"/>
<path d="M74.943 19.2386C73.5226 19.2386 72.3067 18.9574 71.2953 18.3949C70.2839 17.8267 69.5084 17.0369 68.9686 16.0256C68.4288 15.0085 68.1589 13.8295 68.1589 12.4886C68.1589 11.1477 68.4288 9.97159 68.9686 8.96022C69.5084 7.94318 70.2839 7.1534 71.2953 6.5909C72.3067 6.02272 73.5226 5.73863 74.943 5.73863C76.2271 5.73863 77.3379 5.97159 78.2754 6.4375C79.2186 6.89772 79.9487 7.55113 80.4658 8.39772C80.9828 9.23863 81.2442 10.2273 81.2498 11.3636H76.8862C76.8237 10.6761 76.6248 10.1534 76.2896 9.79545C75.9601 9.43181 75.5339 9.25 75.0112 9.25C74.6021 9.25 74.2442 9.36931 73.9373 9.60795C73.6305 9.8409 73.3919 10.196 73.2214 10.6733C73.051 11.1449 72.9658 11.7386 72.9658 12.4545C72.9658 13.1705 73.051 13.767 73.2214 14.2443C73.3919 14.7159 73.6305 15.071 73.9373 15.3097C74.2442 15.5426 74.6021 15.6591 75.0112 15.6591C75.3578 15.6591 75.6646 15.5795 75.9317 15.4205C76.1987 15.2557 76.4146 15.017 76.5794 14.7045C76.7498 14.3864 76.8521 14 76.8862 13.5455H81.2498C81.2328 14.6989 80.9686 15.7045 80.4572 16.5625C79.9459 17.4148 79.2214 18.0739 78.2839 18.5398C77.3521 19.0057 76.2385 19.2386 74.943 19.2386Z" fill="#0D0D0D"/>
<path d="M55.9918 19H50.8782L56.6395 1.54546H63.1168L68.8782 19H63.7645L59.9464 6.35227H59.81L55.9918 19ZM55.0373 12.1136H64.6509V15.6591H55.0373V12.1136Z" fill="#0D0D0D"/>
<path d="M43.0408 19V5.90909H47.609V8.39772H47.7453C47.984 7.47727 48.3618 6.80397 48.8788 6.37784C49.4016 5.9517 50.0124 5.73863 50.7112 5.73863C50.9158 5.73863 51.1175 5.75568 51.3163 5.78977C51.5209 5.81818 51.7169 5.86079 51.9044 5.91761V9.93181C51.6715 9.85227 51.3845 9.79261 51.0436 9.75284C50.7027 9.71306 50.4101 9.69318 50.1658 9.69318C49.7055 9.69318 49.2908 9.79829 48.9215 10.0085C48.5578 10.2131 48.2709 10.5028 48.0607 10.8778C47.8504 11.2472 47.7453 11.6818 47.7453 12.1818V19H43.0408Z" fill="#0D0D0D"/>
<path d="M35.6719 19.2386C34.2741 19.2386 33.0696 18.9716 32.0582 18.4375C31.0526 17.8977 30.277 17.125 29.7315 16.1193C29.1918 15.108 28.9219 13.8977 28.9219 12.4886C28.9219 11.1364 29.1946 9.95454 29.7401 8.94318C30.2855 7.93181 31.0554 7.14488 32.0497 6.58238C33.044 6.01988 34.2173 5.73863 35.5696 5.73863C36.5582 5.73863 37.4531 5.89204 38.2543 6.19886C39.0554 6.50568 39.7401 6.9517 40.3082 7.53693C40.8764 8.11647 41.3139 8.82102 41.6207 9.65056C41.9276 10.4801 42.081 11.4148 42.081 12.4545V13.5455H30.3878V10.9545H37.7514C37.7457 10.5795 37.6491 10.25 37.4616 9.96591C37.2798 9.67613 37.0327 9.4517 36.7202 9.29261C36.4134 9.12784 36.0639 9.04545 35.6719 9.04545C35.2912 9.04545 34.9418 9.12784 34.6236 9.29261C34.3054 9.4517 34.0497 9.67329 33.8565 9.95738C33.669 10.2415 33.5696 10.5739 33.5582 10.9545V13.75C33.5582 14.1705 33.6463 14.5455 33.8224 14.875C33.9986 15.2045 34.2514 15.4631 34.581 15.6506C34.9105 15.8381 35.3082 15.9318 35.7741 15.9318C36.098 15.9318 36.3935 15.8864 36.6605 15.7955C36.9332 15.7045 37.1662 15.5739 37.3594 15.4034C37.5526 15.2273 37.6946 15.017 37.7855 14.7727H42.081C41.9332 15.6818 41.5838 16.4716 41.0327 17.142C40.4815 17.8068 39.7514 18.3239 38.8423 18.6932C37.9389 19.0568 36.8821 19.2386 35.6719 19.2386Z" fill="#0D0D0D"/>
<path d="M28.5801 5.90908V9.31818H19.9551V5.90908H28.5801ZM21.6255 2.77272H26.3301V14.7898C26.3301 14.9716 26.3613 15.125 26.4238 15.25C26.4863 15.3693 26.5829 15.4602 26.7136 15.5227C26.8443 15.5795 27.0119 15.6079 27.2164 15.6079C27.3585 15.6079 27.5233 15.5909 27.7108 15.5568C27.9039 15.5227 28.046 15.4943 28.1369 15.4716L28.8187 18.7784C28.6085 18.8409 28.3074 18.9176 27.9153 19.0085C27.5289 19.0994 27.0687 19.1591 26.5346 19.1875C25.4551 19.2443 24.5488 19.1335 23.8159 18.8551C23.0829 18.571 22.5318 18.125 22.1625 17.517C21.7931 16.9091 21.6142 16.1477 21.6255 15.2329V2.77272Z" fill="#0D0D0D"/>
<path d="M10.9221 11.6364V19H6.21753V5.90909H10.6834V8.39772H10.8198C11.1039 7.56818 11.6039 6.91761 12.3198 6.44602C13.0414 5.97443 13.8823 5.73863 14.8425 5.73863C15.7687 5.73863 16.5726 5.9517 17.2545 6.37784C17.942 6.79829 18.4732 7.37784 18.8482 8.11647C19.2289 8.85511 19.4164 9.69886 19.4107 10.6477V19H14.7062V11.6364C14.7118 10.9886 14.5471 10.4801 14.2118 10.1108C13.8823 9.74147 13.4221 9.55681 12.8312 9.55681C12.4448 9.55681 12.1067 9.64204 11.817 9.8125C11.5329 9.97727 11.3141 10.2159 11.1607 10.5284C11.0073 10.8352 10.9278 11.2045 10.9221 11.6364Z" fill="#0D0D0D"/>
<path d="M4.86364 1.54546V19H0.125V1.54546H4.86364Z" fill="#0D0D0D"/>
</svg>
