<svg width="25" height="25" viewBox="0 0 25 25" fill="none" xmlns="http://www.w3.org/2000/svg">
<path d="M8.09306 20.8333C9.57412 20.8849 11.0501 20.6271 12.4337 20.0753C13.8174 19.5235 15.0806 18.6888 16.1488 17.6206C17.217 16.5524 18.0685 15.2724 18.6529 13.8561C19.2373 12.4399 19.5429 10.9161 19.5514 9.375C20.2301 8.50147 20.7341 7.49565 21.0338 6.41666C21.0561 6.33141 21.0543 6.24126 21.0286 6.15705C21.0028 6.07284 20.9542 5.99818 20.8886 5.94204C20.823 5.88591 20.7431 5.8507 20.6587 5.84065C20.5743 5.8306 20.4889 5.84615 20.4128 5.88541C20.0577 6.06318 19.6579 6.1206 19.2698 6.04958C18.8817 5.97857 18.5247 5.7827 18.2493 5.48958C17.8977 5.08914 17.4724 4.76617 16.9986 4.53982C16.5247 4.31346 16.012 4.18831 15.4908 4.1718C14.9697 4.15529 14.4506 4.24774 13.9644 4.44368C13.4782 4.63962 13.0348 4.93506 12.6604 5.31249C12.1477 5.82881 11.7723 6.47426 11.5704 7.18611C11.3686 7.89797 11.3473 8.65203 11.5085 9.375C8.15316 9.58333 5.84947 7.92708 4.00652 5.65624C3.95116 5.59104 3.87873 5.54401 3.79809 5.5209C3.71745 5.49779 3.63209 5.49961 3.55242 5.52612C3.47275 5.55263 3.40224 5.6027 3.34948 5.6702C3.29672 5.7377 3.264 5.81972 3.25532 5.90625C2.90423 7.93169 3.15749 10.0204 3.9811 11.8917C4.80471 13.7631 6.15921 15.3276 7.86269 16.375C6.7205 17.7373 5.11651 18.5882 3.38553 18.75C3.29279 18.766 3.20718 18.8117 3.14069 18.8808C3.07419 18.9499 3.03013 19.0389 3.01468 19.1354C2.99922 19.2318 3.01315 19.3308 3.0545 19.4186C3.09585 19.5064 3.16257 19.5786 3.2453 19.625C4.75123 20.4077 6.4096 20.821 8.09306 20.8333Z" fill="white"/>
</svg>
